M48
INCH,TZ
T1C0.016
T2C0.039
T3C0.047
T4C0.059
T5C0.098
T6C0.098
%
G90
G05
T1
X26000Y-55250
X27750Y-39250
X28750Y-40750
X30250Y-54500
X31500Y-32000
X32250Y-31750
X33000Y-32750
X33250Y-53500
X33624Y-40750
X33750Y-54500
X35750Y-50250
X36750Y-47500
X37000Y-47000
X37750Y-46750
X38250Y-31000
X38500Y-47750
X38750Y-50750
X39000Y-48250
X39000Y-49500
X39250Y-39500
X39250Y-50250
X40000Y-38500
X40000Y-40750
X40250Y-55250
X40500Y-47500
X40500Y-56250
X40750Y-30750
X41000Y-48250
X41000Y-49250
X41250Y-51750
X41750Y-47750
X42000Y-46250
X42000Y-48000
X42250Y-32000
X42250Y-39000
X42250Y-48250
X42500Y-31750
X42500Y-38750
X42650Y-53050
X42650Y-54800
X42750Y-32750
X43000Y-40250
X43000Y-49250
X43000Y-50500
X43000Y-57000
X43000Y-58750
X43750Y-50250
X43750Y-58250
X44000Y-57500
X44000Y-58000
X44250Y-46000
X44750Y-39000
X44750Y-48000
X45000Y-38750
X45000Y-48250
X45750Y-40250
X45750Y-53250
X45750Y-56750
X46250Y-45750
X46250Y-57500
X46250Y-58000
X46500Y-58750
X46750Y-39750
X46750Y-50250
X47250Y-54750
X47500Y-40250
X47500Y-40750
X48250Y-38750
X48250Y-53500
X48750Y-47250
X49000Y-47000
X49500Y-47000
X49500Y-54500
X49750Y-38750
X49750Y-46750
X49750Y-55000
X50500Y-54000
X51250Y-40250
X51500Y-47000
X51500Y-47750
X52900Y-56250
X53500Y-40250
X54000Y-54500
X54250Y-55500
X54500Y-55250
X54750Y-55000
X55000Y-54750
X55250Y-54000
X56000Y-53250
X56000Y-60750
X56250Y-60500
X57000Y-45500
X57000Y-53750
X57000Y-57500
X57250Y-48500
X57250Y-59500
X57250Y-60500
X57500Y-40750
X57500Y-60250
X57750Y-31750
X57750Y-47500
X57750Y-54000
X57750Y-61000
X58000Y-50250
X58000Y-53000
X58000Y-53750
X58000Y-55500
X58250Y-61000
X58500Y-56500
X58600Y-57350
X58600Y-60150
X59000Y-40250
X59000Y-55250
X59250Y-37750
X59250Y-48500
X59250Y-61000
X59500Y-61750
X59750Y-38750
X60000Y-53750
X60000Y-55250
X60000Y-58750
X60250Y-31250
X60250Y-54000
X60250Y-55500
X60450Y-56200
X60700Y-57550
X61000Y-40250
X61250Y-50750
X61400Y-60150
X61500Y-53750
X61500Y-60500
X62000Y-57250
X62250Y-59500
X62500Y-38250
X62750Y-54000
X62750Y-60000
X63000Y-31000
X63000Y-49500
X63250Y-48500
X63500Y-48250
X63750Y-48000
X64000Y-47750
X64250Y-38500
X64250Y-47500
X64250Y-59250
X64500Y-47250
X64500Y-52500
X64500Y-54500
X64750Y-47000
X64750Y-54750
X65000Y-32000
X65000Y-40750
X65000Y-46750
X65000Y-55000
X65250Y-55250
X66000Y-49500
X66750Y-55750
X66750Y-56750
X67000Y-38750
X67000Y-42000
X67750Y-46000
X68000Y-31000
X68500Y-40250
X68750Y-56500
X69000Y-54250
X69250Y-55500
X69250Y-56250
X69750Y-40750
X70000Y-38250
X70250Y-30750
X70750Y-55750
X70750Y-57500
X70750Y-60250
X71250Y-40250
X71250Y-56250
X71250Y-58250
X71500Y-38750
X72000Y-40750
X72250Y-49750
X72250Y-53500
X72500Y-32250
X72750Y-60250
X73000Y-56750
X73500Y-48500
X73500Y-50250
X73500Y-57250
X73500Y-61000
X73750Y-46250
X74500Y-55500
X74750Y-59750
X75500Y-31000
X75750Y-57250
X76750Y-50250
X77500Y-30750
X77500Y-38250
X78000Y-60750
X78750Y-53250
X79250Y-38500
X79500Y-46000
X79500Y-56750
X80000Y-32500
X80000Y-40750
X80000Y-53500
X80000Y-56250
X80000Y-57250
X80500Y-56000
X80500Y-58000
X81250Y-48250
X81250Y-56250
X81750Y-60750
X82750Y-56000
X83000Y-31000
X83500Y-45750
X83750Y-54500
X83750Y-60500
X84000Y-33500
X84000Y-54750
X84250Y-55000
X84500Y-55250
X85500Y-30750
X86750Y-31750
X87000Y-39000
X87250Y-32000
X87250Y-39250
X87500Y-31750
X87500Y-32250
X87500Y-39500
X88000Y-32000
X88000Y-53000
X88000Y-60500
X88250Y-32500
X88250Y-50000
X88500Y-60250
X89250Y-60000
X89750Y-60750
X90000Y-35000
X90500Y-30750
X90500Y-32750
X90500Y-57350
X91200Y-59950
X91250Y-50500
X91250Y-55250
X91500Y-46250
X91900Y-58750
X92250Y-30750
X92750Y-55750
X93000Y-55500
X93250Y-40250
X93300Y-57350
X93300Y-60150
X93500Y-53500
X93500Y-57000
X93750Y-33500
X93750Y-51500
X94000Y-40750
X94000Y-46000
X94250Y-38000
X94500Y-57500
X94750Y-35750
X95000Y-58000
X95250Y-35250
X95500Y-35750
X95500Y-53000
X95750Y-38500
X96000Y-50500
X96250Y-48000
X97000Y-40250
X97500Y-54500
X97750Y-31000
X97750Y-46000
X97750Y-54750
X98000Y-55000
X98250Y-42000
X98250Y-55250
X98500Y-47750
X98500Y-55500
X98750Y-51000
X98750Y-55750
X99000Y-54250
X99250Y-45500
X99250Y-56250
X99500Y-56500
X100000Y-33750
X100250Y-30750
X100500Y-47750
X100500Y-54750
X100750Y-54500
X101250Y-51000
X101750Y-46000
X102250Y-55500
X102500Y-40250
X102750Y-32000
X104000Y-40750
X104500Y-42000
X105250Y-31000
X105250Y-56000
X105500Y-40250
X105500Y-47750
X105750Y-56000
X105750Y-57000
X106000Y-47500
X107000Y-41250
X107250Y-30750
X108000Y-26250
X108750Y-30500
X109250Y-46000
X110000Y-40250
X110000Y-55750
X110250Y-31750
X110750Y-32500
X111500Y-40750
X111500Y-48000
X112000Y-42000
X112250Y-54500
X112750Y-46000
X113000Y-53500
X113500Y-47250
X114000Y-56000
X114250Y-45750
X116000Y-48750
X116000Y-55000
X117250Y-55250
X118000Y-51317
X119000Y-40250
X119000Y-45750
X119000Y-47750
X119500Y-40750
X119500Y-50000
X119500Y-52000
X119750Y-53250
X119750Y-56250
X120000Y-42750
X120000Y-48000
X120000Y-51500
X120000Y-56500
X120250Y-47000
X120750Y-50000
X120750Y-51500
X120750Y-53250
X121250Y-51750
X122750Y-50250
X124750Y-49500
X126000Y-47250
X127750Y-39750
X129000Y-39250
X129250Y-46750
X129250Y-48500
X129750Y-43250
X129750Y-50250
X130250Y-42000
X130250Y-46500
X131500Y-41500
X133250Y-42500
T2
X27625Y-27063
X28562Y-57063
X28563Y-49563
X28625Y-27063
X29500Y-34563
X29563Y-57063
X29563Y-49563
X30438Y-42063
X30500Y-34563
X31438Y-42063
X32313Y-49563
X33313Y-49563
X35125Y-27063
X36125Y-27063
X37000Y-49563
X37938Y-57063
X38000Y-49563
X38875Y-34563
X38938Y-57063
X39875Y-34563
X40750Y-42063
X41750Y-42063
X42625Y-27063
X43625Y-27063
X44500Y-49563
X45500Y-49563
X46375Y-34563
X47313Y-57063
X47375Y-34563
X48250Y-42063
X48313Y-57063
X49250Y-42063
X50125Y-27063
X51125Y-27063
X52000Y-49563
X53000Y-49563
X53875Y-34563
X54875Y-34563
X55750Y-42063
X56750Y-42063
X57625Y-27063
X58625Y-27063
X59500Y-49563
X60500Y-49563
X61375Y-34563
X62375Y-34563
X63250Y-42063
X64250Y-42063
X65125Y-27063
X66125Y-27063
X67000Y-49563
X68000Y-49563
X68875Y-34563
X69875Y-34563
X70750Y-42063
X71750Y-42063
X72625Y-27063
X73625Y-27063
X74500Y-49563
X75438Y-61063
X75500Y-49563
X76375Y-34563
X76438Y-61063
X77375Y-34563
X78250Y-42063
X79250Y-42063
X80125Y-27063
X81125Y-27063
X82000Y-49563
X83000Y-49563
X83875Y-34563
X84875Y-34563
X85750Y-42063
X86750Y-42063
X87625Y-27063
X88625Y-27063
X89500Y-49563
X90500Y-49563
X91375Y-34563
X92375Y-34563
X93250Y-42063
X94250Y-42063
X95125Y-27063
X96125Y-27063
X97000Y-49563
X98000Y-49563
X98875Y-34563
X99875Y-34563
X100750Y-42063
X101750Y-42063
X102625Y-27063
X103563Y-57063
X103625Y-27063
X104500Y-49563
X104562Y-57063
X105500Y-49563
X106375Y-34563
X107375Y-34563
X108250Y-42063
X109250Y-42063
X110125Y-27063
X111125Y-27063
X112000Y-49563
X112938Y-57063
X113000Y-49563
X113875Y-34563
X113937Y-57063
X114875Y-34563
X115750Y-42063
X116750Y-42063
X117625Y-27063
X118625Y-27063
X121375Y-34563
X122313Y-57063
X122375Y-34563
X123250Y-42063
X123312Y-57063
X124250Y-42063
X126063Y-49563
X127063Y-49563
X127938Y-42063
X128875Y-27063
X128938Y-42063
X129875Y-27063
X130188Y-39813
X130188Y-40813
X130750Y-34563
X131688Y-57063
X131750Y-34563
X132688Y-57063
T3
X65250Y-59250
X66250Y-59250
X67250Y-59250
X68250Y-59250
X69250Y-59250
X70250Y-59250
X71250Y-59250
X72250Y-59250
X79650Y-59250
X80650Y-59250
X81650Y-59250
X82650Y-59250
X83650Y-59250
X84650Y-59250
X85650Y-59250
X86650Y-59250
T4
X27125Y-31062
X28063Y-61063
X28063Y-53563
X29000Y-38563
X29625Y-30063
X29938Y-46063
X30563Y-60063
X30563Y-52563
X31500Y-37563
X31813Y-53563
X32438Y-45063
X34313Y-52563
X34625Y-31062
X36500Y-53563
X37125Y-30063
X37438Y-61063
X38375Y-38563
X39000Y-52563
X39938Y-60063
X40250Y-46063
X40875Y-37563
X42125Y-31062
X42750Y-45063
X44000Y-53563
X44625Y-30063
X45875Y-38563
X46500Y-52563
X46812Y-61063
X47750Y-46063
X48375Y-37563
X49312Y-60063
X49625Y-31062
X50250Y-45063
X51500Y-53563
X52125Y-30063
X53375Y-38563
X54000Y-52563
X55250Y-46063
X55875Y-37563
X57125Y-31062
X57750Y-45063
X59000Y-53563
X59625Y-30063
X60875Y-38563
X61500Y-52563
X62750Y-46063
X63375Y-37563
X64625Y-31062
X65250Y-45063
X66500Y-53563
X67125Y-30063
X68375Y-38563
X69000Y-52563
X70250Y-46063
X70875Y-37563
X72125Y-31062
X72750Y-45063
X74000Y-53563
X74438Y-58062
X74625Y-30063
X75875Y-38563
X76500Y-52563
X76938Y-57063
X77750Y-46063
X78375Y-37563
X79625Y-31062
X80250Y-45063
X81500Y-53563
X82125Y-30063
X83375Y-38563
X84000Y-52563
X85250Y-46063
X85875Y-37563
X87125Y-31062
X87750Y-45063
X89000Y-53563
X89625Y-30063
X90875Y-38563
X91500Y-52563
X92750Y-46063
X93375Y-37563
X94625Y-31062
X95250Y-45063
X96500Y-53563
X97125Y-30063
X98375Y-38563
X99000Y-52563
X100250Y-46063
X100875Y-37563
X102125Y-31062
X102750Y-45063
X103063Y-61063
X104000Y-53563
X104625Y-30063
X105563Y-60063
X105875Y-38563
X106500Y-52563
X107750Y-46063
X108375Y-37563
X109625Y-31062
X110250Y-45063
X111500Y-53563
X112125Y-30063
X112438Y-61063
X113375Y-38563
X114000Y-52563
X114938Y-60063
X115250Y-46063
X115875Y-37563
X117125Y-31062
X117750Y-45063
X119625Y-30063
X120875Y-38563
X121813Y-61063
X122750Y-46063
X123375Y-37563
X124313Y-60063
X125250Y-45063
X125563Y-53563
X127438Y-46063
X128063Y-52563
X128375Y-31062
X129938Y-45063
X130250Y-38563
X130875Y-30063
X131188Y-61063
X132750Y-37563
X133188Y-38813
X133688Y-60063
X134188Y-41313
T6
X34445Y-36426
T5
X24212Y-47686G85X25984Y-47686
G05
X74504Y-43945G85X75489Y-43945
G05
X99031Y-58985G85X100016Y-58985
G05
X126413Y-36426G85X127398Y-36426
G05
X135268Y-47686G85X137040Y-47686
G05
T0
M30
